<svg width="212" height="38" viewBox="0 0 212 38" fill="none" xmlns="http://www.w3.org/2000/svg">
<g id="weekly">
<g id="weekly_2">
<path d="M10.8677 38C9.69466 38 9.0548 37.7167 8.94816 37.1502L0.843265 1.69968C0.825491 1.59851 0.79883 1.46699 0.763283 1.30511C0.727735 1.14324 0.709961 1.02183 0.709961 0.940895C0.709961 0.657615 0.878813 0.435037 1.21652 0.273163C1.55422 0.0910543 2.06966 0 2.76284 0H3.21608C3.73152 0 4.15809 0.07082 4.4958 0.21246C4.8335 0.3541 5.0379 0.576677 5.109 0.880192L11.1343 27.4377C11.241 27.9638 11.472 29.3094 11.8275 31.4744C11.9164 32.1017 11.9697 32.4356 11.9875 32.476C12.3785 30.6145 12.7607 28.8845 13.1339 27.2859L18.866 0.940895C18.9904 0.313632 19.6036 0 20.7056 0H21.4521C22.5718 0 23.1939 0.313632 23.3183 0.940895L29.1837 27.4984C29.3615 28.2875 29.5303 29.2284 29.6903 30.3211C29.868 31.4137 29.9747 32.1321 30.0102 32.476C30.3835 30.7359 30.7656 29.0261 31.1566 27.3466L36.8887 0.880192C37.0131 0.293397 37.6352 0 38.755 0H39.0482C40.399 0 41.0745 0.313632 41.0745 0.940895C41.0745 1.08253 41.03 1.33546 40.9411 1.69968L32.7563 37.1502C32.6141 37.7167 31.9742 38 30.8367 38H28.9171C27.7618 38 27.1308 37.7167 27.0242 37.1502L21.8253 15.1757L20.8655 8.16454L19.8524 15.1757L14.6802 37.1502C14.5736 37.7167 13.9515 38 12.814 38H10.8677Z" fill="black"/>
<path d="M89.8563 37.9089C89.3586 37.9089 88.9943 37.7774 88.7632 37.5144C88.5321 37.2513 88.4166 36.8466 88.4166 36.3003V1.76038C88.4166 1.19382 88.5321 0.789137 88.7632 0.546326C88.9943 0.28328 89.3586 0.151757 89.8563 0.151757H106.386C106.724 0.151757 106.964 0.273163 107.106 0.515974C107.266 0.758786 107.346 1.17359 107.346 1.76038V2.64058C107.346 3.1869 107.266 3.59159 107.106 3.85463C106.964 4.11768 106.724 4.2492 106.386 4.2492H92.6024V16.5415H104.973C105.311 16.5415 105.551 16.6731 105.693 16.9361C105.853 17.1991 105.933 17.614 105.933 18.1805V19C105.933 19.5666 105.853 19.9814 105.693 20.2444C105.551 20.4872 105.311 20.6086 104.973 20.6086H92.6024V33.8115H106.439C106.777 33.8115 107.017 33.943 107.159 34.2061C107.319 34.4489 107.399 34.8536 107.399 35.4201V36.3003C107.399 36.8466 107.319 37.2513 107.159 37.5144C107.017 37.7774 106.777 37.9089 106.439 37.9089H89.8563Z" fill="black"/>
<path d="M56.0034 37.9089C55.5058 37.9089 55.1414 37.7774 54.9104 37.5144C54.6793 37.2513 54.5638 36.8466 54.5638 36.3003V1.76038C54.5638 1.19382 54.6793 0.789137 54.9104 0.546326C55.1414 0.28328 55.5058 0.151757 56.0034 0.151757H72.5332C72.8709 0.151757 73.1108 0.273163 73.253 0.515974C73.413 0.758786 73.493 1.17359 73.493 1.76038V2.64058C73.493 3.1869 73.413 3.59159 73.253 3.85463C73.1108 4.11768 72.8709 4.2492 72.5332 4.2492H58.7495V16.5415H71.1201C71.4578 16.5415 71.6978 16.6731 71.84 16.9361C71.9999 17.1991 72.0799 17.614 72.0799 18.1805V19C72.0799 19.5666 71.9999 19.9814 71.84 20.2444C71.6978 20.4872 71.4578 20.6086 71.1201 20.6086H58.7495V33.8115H72.5865C72.9242 33.8115 73.1641 33.943 73.3063 34.2061C73.4663 34.4489 73.5463 34.8536 73.5463 35.4201V36.3003C73.5463 36.8466 73.4663 37.2513 73.3063 37.5144C73.1641 37.7774 72.9242 37.9089 72.5865 37.9089H56.0034Z" fill="black"/>
<path d="M124.042 38C122.762 38 122.122 37.6054 122.122 36.8163V1.21406C122.122 0.404686 122.762 0 124.042 0H124.415C125.677 0 126.308 0.404686 126.308 1.21406V17.7252H126.495L138.145 0.789137C138.359 0.526092 138.696 0.333866 139.159 0.21246C139.638 0.07082 140.163 0 140.732 0H141.185C141.718 0 142.127 0.07082 142.411 0.21246C142.696 0.3541 142.838 0.526092 142.838 0.728435C142.838 1.05218 142.687 1.4164 142.385 1.82109L130.547 18.6358L144.891 36.3914C145.175 36.7354 145.317 37.0186 145.317 37.2412C145.317 37.5447 145.157 37.7471 144.837 37.8482C144.535 37.9494 144.002 38 143.238 38H142.651C141.976 38 141.434 37.9595 141.025 37.8786C140.634 37.7977 140.314 37.6054 140.065 37.3019L126.495 19.9409H126.308V36.8163C126.308 37.6054 125.677 38 124.415 38H124.042Z" fill="black"/>
<path d="M159.601 37.9089C159.103 37.9089 158.739 37.7774 158.508 37.5144C158.277 37.2513 158.161 36.8466 158.161 36.3003V1.21406C158.161 0.404686 158.801 0 160.081 0H160.454C161.716 0 162.347 0.404686 162.347 1.21406V33.8115H175.384C175.722 33.8115 175.962 33.943 176.104 34.2061C176.246 34.4489 176.317 34.8536 176.317 35.4201V36.3003C176.317 36.8466 176.246 37.2513 176.104 37.5144C175.962 37.7774 175.722 37.9089 175.384 37.9089H159.601Z" fill="black"/>
<path d="M198.679 38C197.417 38 196.786 37.6054 196.786 36.8163V18.5447L186.869 1.91214C186.62 1.52769 186.495 1.20394 186.495 0.940895C186.495 0.313632 187.224 0 188.682 0H189.188C189.721 0 190.148 0.0607029 190.468 0.182109C190.806 0.303514 191.063 0.515974 191.241 0.819489L199.026 14.0831L206.971 0.789137C207.255 0.263046 207.966 0 209.104 0H209.424C210.081 0.0404686 210.552 0.14164 210.837 0.303514C211.139 0.445154 211.29 0.657615 211.29 0.940895C211.29 1.123 211.157 1.44675 210.89 1.91214L200.972 18.6965V36.8163C200.972 37.6054 200.332 38 199.053 38H198.679Z" fill="black"/>
</g>
</g>
</svg>
